<mxfile host="app.diagrams.net" modified="2023-11-14T06:38:46.004Z" agent="Mozilla/5.0 (Windows NT 10.0; Win64; x64) AppleWebKit/537.36 (KHTML, like Gecko) Chrome/119.0.0.0 Safari/537.36 Edg/119.0.0.0" version="22.1.0" etag="BTaGYx-5DQYxja5JDBPO" type="github">
  <diagram name="第 1 页" id="bwiwTlj7G7DeD26bQN0i">
    <mxGraphModel>
      <root>
        <mxCell id="0" />
        <mxCell id="1" parent="0" />
      </root>
    </mxGraphModel>
  </diagram>
</mxfile>
